<mxfile host="app.diagrams.net" modified="2024-02-27T21:02:39.952Z" agent="Mozilla/5.0 (Windows NT 10.0; Win64; x64) AppleWebKit/537.36 (KHTML, like Gecko) Chrome/122.0.0.0 Safari/537.36" etag="_YLgxrB1ZWNdldWqVT7b" version="23.1.7" type="device">
  <diagram name="PÃ¡gina-1" id="aXL9Ak_iB7eHZqtHP99D">
    <mxGraphModel dx="1050" dy="565" grid="1" gridSize="10" guides="1" tooltips="1" connect="1" arrows="1" fold="1" page="1" pageScale="1" pageWidth="827" pageHeight="1169" math="0" shadow="0">
      <root>
        <mxCell id="0" />
        <mxCell id="1" parent="0" />
        <mxCell id="geUgr5bdsNlKc05yIEa0-7" value="" style="edgeStyle=orthogonalEdgeStyle;rounded=0;orthogonalLoop=1;jettySize=auto;html=1;" parent="1" source="geUgr5bdsNlKc05yIEa0-1" edge="1">
          <mxGeometry relative="1" as="geometry">
            <mxPoint x="430" y="160" as="targetPoint" />
          </mxGeometry>
        </mxCell>
        <mxCell id="geUgr5bdsNlKc05yIEa0-1" value="Inicio" style="ellipse;whiteSpace=wrap;html=1;" parent="1" vertex="1">
          <mxGeometry x="370" y="30" width="120" height="80" as="geometry" />
        </mxCell>
        <mxCell id="mfSgc4RN38Fvr27nuxm--11" value="" style="edgeStyle=orthogonalEdgeStyle;rounded=0;orthogonalLoop=1;jettySize=auto;html=1;" edge="1" parent="1" source="mfSgc4RN38Fvr27nuxm--9" target="mfSgc4RN38Fvr27nuxm--10">
          <mxGeometry relative="1" as="geometry" />
        </mxCell>
        <mxCell id="mfSgc4RN38Fvr27nuxm--9" value="int tab.nums [5]" style="rounded=0;whiteSpace=wrap;html=1;" vertex="1" parent="1">
          <mxGeometry x="370" y="160" width="120" height="60" as="geometry" />
        </mxCell>
        <mxCell id="mfSgc4RN38Fvr27nuxm--16" value="" style="edgeStyle=orthogonalEdgeStyle;rounded=0;orthogonalLoop=1;jettySize=auto;html=1;" edge="1" parent="1" source="mfSgc4RN38Fvr27nuxm--10" target="mfSgc4RN38Fvr27nuxm--12">
          <mxGeometry relative="1" as="geometry" />
        </mxCell>
        <mxCell id="mfSgc4RN38Fvr27nuxm--10" value="int tab.nums = 42" style="shape=parallelogram;perimeter=parallelogramPerimeter;whiteSpace=wrap;html=1;fixedSize=1;" vertex="1" parent="1">
          <mxGeometry x="360" y="260" width="140" height="60" as="geometry" />
        </mxCell>
        <mxCell id="mfSgc4RN38Fvr27nuxm--17" value="" style="edgeStyle=orthogonalEdgeStyle;rounded=0;orthogonalLoop=1;jettySize=auto;html=1;" edge="1" parent="1" source="mfSgc4RN38Fvr27nuxm--12" target="mfSgc4RN38Fvr27nuxm--13">
          <mxGeometry relative="1" as="geometry" />
        </mxCell>
        <mxCell id="mfSgc4RN38Fvr27nuxm--12" value="int tab.nums = 105" style="shape=parallelogram;perimeter=parallelogramPerimeter;whiteSpace=wrap;html=1;fixedSize=1;" vertex="1" parent="1">
          <mxGeometry x="360" y="350" width="140" height="60" as="geometry" />
        </mxCell>
        <mxCell id="mfSgc4RN38Fvr27nuxm--18" value="" style="edgeStyle=orthogonalEdgeStyle;rounded=0;orthogonalLoop=1;jettySize=auto;html=1;" edge="1" parent="1" source="mfSgc4RN38Fvr27nuxm--13" target="mfSgc4RN38Fvr27nuxm--14">
          <mxGeometry relative="1" as="geometry" />
        </mxCell>
        <mxCell id="mfSgc4RN38Fvr27nuxm--13" value="int tab.nums = 10" style="shape=parallelogram;perimeter=parallelogramPerimeter;whiteSpace=wrap;html=1;fixedSize=1;" vertex="1" parent="1">
          <mxGeometry x="360" y="450" width="140" height="60" as="geometry" />
        </mxCell>
        <mxCell id="mfSgc4RN38Fvr27nuxm--19" value="" style="edgeStyle=orthogonalEdgeStyle;rounded=0;orthogonalLoop=1;jettySize=auto;html=1;" edge="1" parent="1" source="mfSgc4RN38Fvr27nuxm--14" target="mfSgc4RN38Fvr27nuxm--15">
          <mxGeometry relative="1" as="geometry" />
        </mxCell>
        <mxCell id="mfSgc4RN38Fvr27nuxm--14" value="int tab.nums = 50" style="shape=parallelogram;perimeter=parallelogramPerimeter;whiteSpace=wrap;html=1;fixedSize=1;" vertex="1" parent="1">
          <mxGeometry x="360" y="554.5" width="140" height="60" as="geometry" />
        </mxCell>
        <mxCell id="mfSgc4RN38Fvr27nuxm--21" value="" style="edgeStyle=orthogonalEdgeStyle;rounded=0;orthogonalLoop=1;jettySize=auto;html=1;" edge="1" parent="1" source="mfSgc4RN38Fvr27nuxm--15" target="mfSgc4RN38Fvr27nuxm--20">
          <mxGeometry relative="1" as="geometry" />
        </mxCell>
        <mxCell id="mfSgc4RN38Fvr27nuxm--15" value="int tab.nums = 01" style="shape=parallelogram;perimeter=parallelogramPerimeter;whiteSpace=wrap;html=1;fixedSize=1;" vertex="1" parent="1">
          <mxGeometry x="360" y="660" width="140" height="60" as="geometry" />
        </mxCell>
        <mxCell id="mfSgc4RN38Fvr27nuxm--23" value="" style="edgeStyle=orthogonalEdgeStyle;rounded=0;orthogonalLoop=1;jettySize=auto;html=1;" edge="1" parent="1" source="mfSgc4RN38Fvr27nuxm--20" target="mfSgc4RN38Fvr27nuxm--22">
          <mxGeometry relative="1" as="geometry" />
        </mxCell>
        <mxCell id="mfSgc4RN38Fvr27nuxm--20" value="i =0; i &amp;lt;5; i++;" style="shape=hexagon;perimeter=hexagonPerimeter2;whiteSpace=wrap;html=1;fixedSize=1;" vertex="1" parent="1">
          <mxGeometry x="370" y="770" width="120" height="80" as="geometry" />
        </mxCell>
        <mxCell id="mfSgc4RN38Fvr27nuxm--25" value="" style="edgeStyle=orthogonalEdgeStyle;rounded=0;orthogonalLoop=1;jettySize=auto;html=1;" edge="1" parent="1" source="mfSgc4RN38Fvr27nuxm--22" target="mfSgc4RN38Fvr27nuxm--24">
          <mxGeometry relative="1" as="geometry" />
        </mxCell>
        <mxCell id="mfSgc4RN38Fvr27nuxm--22" value="tab [ i ] = n" style="rounded=0;whiteSpace=wrap;html=1;" vertex="1" parent="1">
          <mxGeometry x="370" y="900" width="120" height="60" as="geometry" />
        </mxCell>
        <mxCell id="mfSgc4RN38Fvr27nuxm--24" value="n" style="shape=parallelogram;perimeter=parallelogramPerimeter;whiteSpace=wrap;html=1;fixedSize=1;" vertex="1" parent="1">
          <mxGeometry x="370" y="1000" width="120" height="60" as="geometry" />
        </mxCell>
        <mxCell id="mfSgc4RN38Fvr27nuxm--26" value="" style="endArrow=classic;html=1;rounded=0;exitX=0;exitY=0.5;exitDx=0;exitDy=0;entryX=0;entryY=0.5;entryDx=0;entryDy=0;" edge="1" parent="1" source="mfSgc4RN38Fvr27nuxm--24" target="mfSgc4RN38Fvr27nuxm--20">
          <mxGeometry width="50" height="50" relative="1" as="geometry">
            <mxPoint x="340" y="900" as="sourcePoint" />
            <mxPoint x="390" y="850" as="targetPoint" />
            <Array as="points">
              <mxPoint x="290" y="1030" />
              <mxPoint x="290" y="810" />
            </Array>
          </mxGeometry>
        </mxCell>
        <mxCell id="mfSgc4RN38Fvr27nuxm--27" value="" style="endArrow=classic;html=1;rounded=0;exitX=1;exitY=0.5;exitDx=0;exitDy=0;" edge="1" parent="1">
          <mxGeometry width="50" height="50" relative="1" as="geometry">
            <mxPoint x="490" y="800" as="sourcePoint" />
            <mxPoint x="440" y="1130" as="targetPoint" />
            <Array as="points">
              <mxPoint x="590" y="800" />
              <mxPoint x="590" y="1100" />
              <mxPoint x="440" y="1100" />
            </Array>
          </mxGeometry>
        </mxCell>
        <mxCell id="mfSgc4RN38Fvr27nuxm--30" value="" style="edgeStyle=orthogonalEdgeStyle;rounded=0;orthogonalLoop=1;jettySize=auto;html=1;" edge="1" parent="1" source="mfSgc4RN38Fvr27nuxm--28" target="mfSgc4RN38Fvr27nuxm--29">
          <mxGeometry relative="1" as="geometry" />
        </mxCell>
        <mxCell id="mfSgc4RN38Fvr27nuxm--28" value="i =0; i &amp;lt;5; i++;" style="shape=hexagon;perimeter=hexagonPerimeter2;whiteSpace=wrap;html=1;fixedSize=1;" vertex="1" parent="1">
          <mxGeometry x="380" y="1130" width="120" height="80" as="geometry" />
        </mxCell>
        <mxCell id="mfSgc4RN38Fvr27nuxm--29" value="" style="rhombus;whiteSpace=wrap;html=1;" vertex="1" parent="1">
          <mxGeometry x="400" y="1250" width="80" height="80" as="geometry" />
        </mxCell>
      </root>
    </mxGraphModel>
  </diagram>
</mxfile>
